<mxfile host="app.diagrams.net" modified="2022-09-03T13:05:15.599Z" agent="5.0 (Windows NT 10.0; Win64; x64) AppleWebKit/537.36 (KHTML, like Gecko) Chrome/104.0.0.0 Safari/537.36" etag="QW3Vm7w-wzO8AX-tg46M" version="16.5.3" type="github">
  <diagram id="zoKfGG71uKdCOVqQadK0" name="第 1 页">
    <mxGraphModel dx="1673" dy="895" grid="0" gridSize="10" guides="1" tooltips="1" connect="1" arrows="1" fold="1" page="1" pageScale="1" pageWidth="1169" pageHeight="827" math="0" shadow="0">
      <root>
        <mxCell id="0" />
        <mxCell id="1" parent="0" />
        <mxCell id="K9JDCldYqfPiGEqKxHy6-145" value="" style="rounded=0;whiteSpace=wrap;html=1;fontSize=27;" parent="1" vertex="1">
          <mxGeometry x="59" y="93.65" width="1050.87" height="606.35" as="geometry" />
        </mxCell>
        <mxCell id="K9JDCldYqfPiGEqKxHy6-41" value="" style="group" parent="1" vertex="1" connectable="0">
          <mxGeometry x="256" y="446" width="677" height="207.53" as="geometry" />
        </mxCell>
        <mxCell id="K9JDCldYqfPiGEqKxHy6-2" value="" style="rounded=0;whiteSpace=wrap;html=1;shadow=0;dashed=1;sketch=0;fontFamily=Helvetica;fontSize=21;" parent="K9JDCldYqfPiGEqKxHy6-41" vertex="1">
          <mxGeometry x="74.84077079107504" width="230.0152129817444" height="99.55947063688997" as="geometry" />
        </mxCell>
        <mxCell id="K9JDCldYqfPiGEqKxHy6-6" value="&lt;b&gt;&lt;font style=&quot;font-size: 27px&quot;&gt;X&lt;/font&gt;&lt;/b&gt;" style="ellipse;whiteSpace=wrap;html=1;aspect=fixed;shadow=0;sketch=0;fontFamily=Helvetica;fontSize=18;fontColor=default;strokeColor=#6c8ebf;fillColor=#E0E0E0;" parent="K9JDCldYqfPiGEqKxHy6-41" vertex="1">
          <mxGeometry y="21.628436724565752" width="50.12202748310086" height="50.12202748310086" as="geometry" />
        </mxCell>
        <mxCell id="K9JDCldYqfPiGEqKxHy6-7" value="" style="group" parent="K9JDCldYqfPiGEqKxHy6-41" vertex="1" connectable="0">
          <mxGeometry x="100.24543610547667" y="19.911894127377995" width="212.16328600405677" height="87.20036393713812" as="geometry" />
        </mxCell>
        <mxCell id="K9JDCldYqfPiGEqKxHy6-8" value="" style="verticalLabelPosition=bottom;verticalAlign=top;html=1;shape=offPageConnector;rounded=0;size=0.5;shadow=0;sketch=0;fontFamily=Helvetica;fontSize=18;strokeColor=#b85450;fillColor=#f8cecc;rotation=-90;" parent="K9JDCldYqfPiGEqKxHy6-7" vertex="1">
          <mxGeometry x="0.6866125760649087" width="52.18255578093306" height="52.18289495450785" as="geometry" />
        </mxCell>
        <mxCell id="K9JDCldYqfPiGEqKxHy6-9" value="&lt;b&gt;G&lt;sub&gt;E&lt;/sub&gt;&lt;/b&gt;" style="text;html=1;strokeColor=none;fillColor=none;align=center;verticalAlign=middle;whiteSpace=wrap;rounded=0;shadow=0;sketch=0;fontFamily=Helvetica;fontSize=27;fontColor=default;" parent="K9JDCldYqfPiGEqKxHy6-7" vertex="1">
          <mxGeometry y="16.47880893300248" width="41.19675456389452" height="20.5985111662531" as="geometry" />
        </mxCell>
        <mxCell id="K9JDCldYqfPiGEqKxHy6-3" style="edgeStyle=orthogonalEdgeStyle;rounded=0;orthogonalLoop=1;jettySize=auto;html=1;entryX=0;entryY=0.5;entryDx=0;entryDy=0;fontFamily=Helvetica;fontSize=21;fontColor=default;" parent="K9JDCldYqfPiGEqKxHy6-41" source="K9JDCldYqfPiGEqKxHy6-6" target="K9JDCldYqfPiGEqKxHy6-9" edge="1">
          <mxGeometry relative="1" as="geometry" />
        </mxCell>
        <mxCell id="K9JDCldYqfPiGEqKxHy6-11" value="z" style="rounded=1;whiteSpace=wrap;html=1;shadow=0;sketch=0;fontFamily=Helvetica;fontSize=27;fillColor=#e1d5e7;strokeColor=#9673a6;" parent="K9JDCldYqfPiGEqKxHy6-41" vertex="1">
          <mxGeometry x="162.72718052738338" y="34.330851943755164" width="52.182555780933065" height="24.71821339950372" as="geometry" />
        </mxCell>
        <mxCell id="K9JDCldYqfPiGEqKxHy6-12" value="" style="group;rotation=-180;" parent="K9JDCldYqfPiGEqKxHy6-41" vertex="1" connectable="0">
          <mxGeometry x="229.32860040567954" y="19.911894127377995" width="80.33367139959432" height="87.54367245657566" as="geometry" />
        </mxCell>
        <mxCell id="K9JDCldYqfPiGEqKxHy6-13" value="" style="verticalLabelPosition=bottom;verticalAlign=top;html=1;shape=offPageConnector;rounded=0;size=0.5;shadow=0;sketch=0;fontFamily=Helvetica;fontSize=18;strokeColor=#6c8ebf;fillColor=#dae8fc;rotation=-270;" parent="K9JDCldYqfPiGEqKxHy6-12" vertex="1">
          <mxGeometry width="52.182555780933065" height="52.182894954507844" as="geometry" />
        </mxCell>
        <mxCell id="K9JDCldYqfPiGEqKxHy6-14" value="&lt;b&gt;&lt;span style=&quot;font-size: 27px&quot;&gt;G&lt;sub&gt;D&lt;/sub&gt;&lt;/span&gt;&lt;/b&gt;" style="text;html=1;strokeColor=none;fillColor=none;align=center;verticalAlign=middle;whiteSpace=wrap;rounded=0;shadow=0;sketch=0;fontFamily=Helvetica;fontSize=27;fontColor=default;rotation=0;" parent="K9JDCldYqfPiGEqKxHy6-12" vertex="1">
          <mxGeometry x="11.672413793103448" y="15.10557485525227" width="41.19675456389453" height="20.598511166253097" as="geometry" />
        </mxCell>
        <mxCell id="K9JDCldYqfPiGEqKxHy6-15" value="&lt;b&gt;&lt;font style=&quot;font-size: 26px&quot;&gt;G&lt;/font&gt;&lt;/b&gt;" style="text;html=1;strokeColor=none;fillColor=none;align=center;verticalAlign=middle;whiteSpace=wrap;rounded=0;shadow=0;dashed=1;sketch=0;fontFamily=Helvetica;fontSize=21;fontColor=default;" parent="K9JDCldYqfPiGEqKxHy6-12" vertex="1">
          <mxGeometry x="39.1369168356998" y="59.049065343258874" width="41.19675456389453" height="20.598511166253097" as="geometry" />
        </mxCell>
        <mxCell id="K9JDCldYqfPiGEqKxHy6-10" style="edgeStyle=orthogonalEdgeStyle;rounded=0;orthogonalLoop=1;jettySize=auto;html=1;entryX=0.5;entryY=1;entryDx=0;entryDy=0;fontFamily=Helvetica;fontSize=21;fontColor=default;" parent="K9JDCldYqfPiGEqKxHy6-41" source="K9JDCldYqfPiGEqKxHy6-11" target="K9JDCldYqfPiGEqKxHy6-13" edge="1">
          <mxGeometry relative="1" as="geometry" />
        </mxCell>
        <mxCell id="K9JDCldYqfPiGEqKxHy6-19" value="&lt;b&gt;&lt;font style=&quot;font-size: 16px&quot;&gt;X_hat&lt;/font&gt;&lt;/b&gt;" style="ellipse;whiteSpace=wrap;html=1;aspect=fixed;shadow=0;sketch=0;fontFamily=Helvetica;fontSize=18;fontColor=default;strokeColor=#6c8ebf;fillColor=#E0E0E0;" parent="K9JDCldYqfPiGEqKxHy6-41" vertex="1">
          <mxGeometry x="340.55983772819474" y="19.911894127377995" width="50.12202748310086" height="50.12202748310086" as="geometry" />
        </mxCell>
        <mxCell id="K9JDCldYqfPiGEqKxHy6-20" value="" style="group" parent="K9JDCldYqfPiGEqKxHy6-41" vertex="1" connectable="0">
          <mxGeometry x="425.0131845841785" y="17.852043010752688" width="52.86916835699797" height="52.18289495450785" as="geometry" />
        </mxCell>
        <mxCell id="K9JDCldYqfPiGEqKxHy6-21" value="" style="verticalLabelPosition=bottom;verticalAlign=top;html=1;shape=offPageConnector;rounded=0;size=0.5;shadow=0;sketch=0;fontFamily=Helvetica;fontSize=18;strokeColor=#b85450;fillColor=#f8cecc;rotation=-90;" parent="K9JDCldYqfPiGEqKxHy6-20" vertex="1">
          <mxGeometry x="0.6866125760649088" width="52.182555780933065" height="52.18289495450785" as="geometry" />
        </mxCell>
        <mxCell id="K9JDCldYqfPiGEqKxHy6-22" value="&lt;b&gt;E&lt;/b&gt;" style="text;html=1;strokeColor=none;fillColor=none;align=center;verticalAlign=middle;whiteSpace=wrap;rounded=0;shadow=0;sketch=0;fontFamily=Helvetica;fontSize=27;fontColor=default;" parent="K9JDCldYqfPiGEqKxHy6-20" vertex="1">
          <mxGeometry y="16.478808933002483" width="41.19675456389453" height="20.598511166253104" as="geometry" />
        </mxCell>
        <mxCell id="K9JDCldYqfPiGEqKxHy6-16" style="edgeStyle=orthogonalEdgeStyle;rounded=0;orthogonalLoop=1;jettySize=auto;html=1;fontFamily=Helvetica;fontSize=21;fontColor=default;" parent="K9JDCldYqfPiGEqKxHy6-41" source="K9JDCldYqfPiGEqKxHy6-19" target="K9JDCldYqfPiGEqKxHy6-22" edge="1">
          <mxGeometry relative="1" as="geometry" />
        </mxCell>
        <mxCell id="K9JDCldYqfPiGEqKxHy6-24" value="&lt;font style=&quot;font-size: 21px&quot;&gt;z_hat&lt;/font&gt;" style="rounded=1;whiteSpace=wrap;html=1;shadow=0;sketch=0;fontFamily=Helvetica;fontSize=27;fillColor=#e1d5e7;strokeColor=#9673a6;" parent="K9JDCldYqfPiGEqKxHy6-41" vertex="1">
          <mxGeometry x="504.660243407708" y="31.927692307692304" width="56.98884381338742" height="25.061521918941267" as="geometry" />
        </mxCell>
        <mxCell id="K9JDCldYqfPiGEqKxHy6-25" style="edgeStyle=orthogonalEdgeStyle;rounded=0;orthogonalLoop=1;jettySize=auto;html=1;fontFamily=Helvetica;fontSize=21;fontColor=default;entryX=0;entryY=0.5;entryDx=0;entryDy=0;" parent="K9JDCldYqfPiGEqKxHy6-41" source="K9JDCldYqfPiGEqKxHy6-14" target="K9JDCldYqfPiGEqKxHy6-19" edge="1">
          <mxGeometry relative="1" as="geometry">
            <mxPoint x="339.18661257606493" y="43.94349048800661" as="targetPoint" />
          </mxGeometry>
        </mxCell>
        <mxCell id="K9JDCldYqfPiGEqKxHy6-26" style="edgeStyle=orthogonalEdgeStyle;rounded=0;orthogonalLoop=1;jettySize=auto;html=1;entryX=0;entryY=0.5;entryDx=0;entryDy=0;fontFamily=Helvetica;fontSize=21;fontColor=default;" parent="K9JDCldYqfPiGEqKxHy6-41" source="K9JDCldYqfPiGEqKxHy6-9" target="K9JDCldYqfPiGEqKxHy6-11" edge="1">
          <mxGeometry relative="1" as="geometry" />
        </mxCell>
        <mxCell id="K9JDCldYqfPiGEqKxHy6-27" style="edgeStyle=orthogonalEdgeStyle;rounded=0;orthogonalLoop=1;jettySize=auto;html=1;entryX=0;entryY=0.5;entryDx=0;entryDy=0;fontFamily=Helvetica;fontSize=21;fontColor=default;" parent="K9JDCldYqfPiGEqKxHy6-41" source="K9JDCldYqfPiGEqKxHy6-21" target="K9JDCldYqfPiGEqKxHy6-24" edge="1">
          <mxGeometry relative="1" as="geometry" />
        </mxCell>
        <mxCell id="K9JDCldYqfPiGEqKxHy6-30" value="D&lt;sub&gt;2&lt;/sub&gt;" style="rounded=0;whiteSpace=wrap;html=1;shadow=0;sketch=0;fontFamily=Helvetica;fontSize=30;strokeColor=#82b366;fillColor=#d5e8d4;" parent="K9JDCldYqfPiGEqKxHy6-41" vertex="1">
          <mxGeometry x="546.5480191256831" y="106.5997049779402" width="49.75765027322404" height="36.75405410223272" as="geometry" />
        </mxCell>
        <mxCell id="K9JDCldYqfPiGEqKxHy6-23" style="edgeStyle=orthogonalEdgeStyle;rounded=0;orthogonalLoop=1;jettySize=auto;html=1;entryX=0;entryY=0.25;entryDx=0;entryDy=0;fontFamily=Helvetica;fontSize=30;fontColor=default;" parent="K9JDCldYqfPiGEqKxHy6-41" source="K9JDCldYqfPiGEqKxHy6-24" target="K9JDCldYqfPiGEqKxHy6-30" edge="1">
          <mxGeometry relative="1" as="geometry" />
        </mxCell>
        <mxCell id="K9JDCldYqfPiGEqKxHy6-31" style="edgeStyle=orthogonalEdgeStyle;rounded=0;orthogonalLoop=1;jettySize=auto;html=1;entryX=0;entryY=0.5;entryDx=0;entryDy=0;fontFamily=Helvetica;fontSize=30;fontColor=default;" parent="K9JDCldYqfPiGEqKxHy6-41" source="K9JDCldYqfPiGEqKxHy6-32" target="K9JDCldYqfPiGEqKxHy6-30" edge="1">
          <mxGeometry relative="1" as="geometry" />
        </mxCell>
        <mxCell id="K9JDCldYqfPiGEqKxHy6-32" value="z&#39;" style="rounded=1;whiteSpace=wrap;html=1;shadow=0;sketch=0;fontFamily=Helvetica;fontSize=27;fillColor=#e1d5e7;strokeColor=#9673a6;" parent="K9JDCldYqfPiGEqKxHy6-41" vertex="1">
          <mxGeometry x="442.0890142320354" y="112.61813021727392" width="52.182555780933065" height="24.71821339950372" as="geometry" />
        </mxCell>
        <mxCell id="K9JDCldYqfPiGEqKxHy6-35" value="D&lt;span style=&quot;font-size: 25px&quot;&gt;1&lt;/span&gt;" style="rounded=0;whiteSpace=wrap;html=1;shadow=0;sketch=0;fontFamily=Helvetica;fontSize=30;strokeColor=#82b366;fillColor=#d5e8d4;" parent="K9JDCldYqfPiGEqKxHy6-41" vertex="1">
          <mxGeometry x="396.17448087431694" y="157.06022817416107" width="50.29407103825137" height="37.16099380542805" as="geometry" />
        </mxCell>
        <mxCell id="K9JDCldYqfPiGEqKxHy6-4" style="edgeStyle=orthogonalEdgeStyle;rounded=0;orthogonalLoop=1;jettySize=auto;html=1;entryX=0;entryY=0.75;entryDx=0;entryDy=0;fontFamily=Helvetica;fontSize=30;fontColor=default;" parent="K9JDCldYqfPiGEqKxHy6-41" source="K9JDCldYqfPiGEqKxHy6-6" target="K9JDCldYqfPiGEqKxHy6-35" edge="1">
          <mxGeometry relative="1" as="geometry">
            <Array as="points">
              <mxPoint x="64.54158215010142" y="46.689958643507026" />
              <mxPoint x="64.54158215010142" y="196.37247311827957" />
              <mxPoint x="386.5628803245436" y="196.37247311827957" />
            </Array>
          </mxGeometry>
        </mxCell>
        <mxCell id="K9JDCldYqfPiGEqKxHy6-17" style="edgeStyle=orthogonalEdgeStyle;rounded=0;orthogonalLoop=1;jettySize=auto;html=1;entryX=0;entryY=0.395;entryDx=0;entryDy=0;fontFamily=Helvetica;fontSize=30;fontColor=default;entryPerimeter=0;" parent="K9JDCldYqfPiGEqKxHy6-41" source="K9JDCldYqfPiGEqKxHy6-19" target="K9JDCldYqfPiGEqKxHy6-35" edge="1">
          <mxGeometry relative="1" as="geometry" />
        </mxCell>
        <mxCell id="K9JDCldYqfPiGEqKxHy6-36" value="&lt;b style=&quot;font-size: 28px&quot;&gt;α&lt;sub&gt;1&lt;/sub&gt;&lt;/b&gt;" style="text;html=1;strokeColor=none;fillColor=none;align=center;verticalAlign=middle;whiteSpace=wrap;rounded=0;shadow=0;sketch=0;fontFamily=Helvetica;fontSize=30;fontColor=default;" parent="K9JDCldYqfPiGEqKxHy6-41" vertex="1">
          <mxGeometry x="491.103565850874" y="171.09859225955518" width="41.19675456389453" height="20.5985111662531" as="geometry" />
        </mxCell>
        <mxCell id="K9JDCldYqfPiGEqKxHy6-37" value="&lt;font style=&quot;font-size: 28px&quot;&gt;&lt;b&gt;α&lt;/b&gt;&lt;b&gt;&lt;sub&gt;2&lt;/sub&gt;&lt;/b&gt;&lt;/font&gt;" style="text;html=1;strokeColor=none;fillColor=none;align=center;verticalAlign=middle;whiteSpace=wrap;rounded=0;shadow=0;sketch=0;fontFamily=Helvetica;fontSize=30;fontColor=default;" parent="K9JDCldYqfPiGEqKxHy6-41" vertex="1">
          <mxGeometry x="630.2540651082367" y="115.0571751482403" width="41.19675456389453" height="20.5985111662531" as="geometry" />
        </mxCell>
        <mxCell id="K9JDCldYqfPiGEqKxHy6-33" style="edgeStyle=orthogonalEdgeStyle;rounded=0;orthogonalLoop=1;jettySize=auto;html=1;fontFamily=Helvetica;fontSize=30;fontColor=default;entryX=0;entryY=0.25;entryDx=0;entryDy=0;" parent="K9JDCldYqfPiGEqKxHy6-41" source="K9JDCldYqfPiGEqKxHy6-35" target="K9JDCldYqfPiGEqKxHy6-36" edge="1">
          <mxGeometry relative="1" as="geometry">
            <mxPoint x="497.10750507099385" y="252.50341604631924" as="targetPoint" />
          </mxGeometry>
        </mxCell>
        <mxCell id="K9JDCldYqfPiGEqKxHy6-28" style="edgeStyle=orthogonalEdgeStyle;rounded=0;orthogonalLoop=1;jettySize=auto;html=1;fontFamily=Helvetica;fontSize=34;fontColor=default;" parent="K9JDCldYqfPiGEqKxHy6-41" source="K9JDCldYqfPiGEqKxHy6-30" target="K9JDCldYqfPiGEqKxHy6-37" edge="1">
          <mxGeometry relative="1" as="geometry" />
        </mxCell>
        <mxCell id="K9JDCldYqfPiGEqKxHy6-90" value="" style="group" parent="1" vertex="1" connectable="0">
          <mxGeometry x="85" y="174.25" width="444" height="173.25" as="geometry" />
        </mxCell>
        <mxCell id="K9JDCldYqfPiGEqKxHy6-75" value="&lt;b&gt;&lt;font style=&quot;font-size: 27px&quot;&gt;Z&lt;/font&gt;&lt;/b&gt;" style="ellipse;whiteSpace=wrap;html=1;aspect=fixed;shadow=0;sketch=0;fontFamily=Helvetica;fontSize=18;fontColor=default;strokeColor=#6c8ebf;fillColor=#E0E0E0;" parent="K9JDCldYqfPiGEqKxHy6-90" vertex="1">
          <mxGeometry y="5.75" width="48.5" height="48.5" as="geometry" />
        </mxCell>
        <mxCell id="K9JDCldYqfPiGEqKxHy6-76" value="" style="verticalLabelPosition=bottom;verticalAlign=top;html=1;shape=offPageConnector;rounded=0;size=0.5;shadow=0;sketch=0;fontFamily=Helvetica;fontSize=18;strokeColor=#6c8ebf;fillColor=#dae8fc;rotation=-270;" parent="K9JDCldYqfPiGEqKxHy6-90" vertex="1">
          <mxGeometry x="94" width="58.25" height="58.25" as="geometry" />
        </mxCell>
        <mxCell id="K9JDCldYqfPiGEqKxHy6-77" value="&lt;b&gt;&lt;font style=&quot;font-size: 28px&quot;&gt;G&lt;/font&gt;&lt;/b&gt;" style="text;html=1;strokeColor=none;fillColor=none;align=center;verticalAlign=middle;whiteSpace=wrap;rounded=0;fontSize=26;" parent="K9JDCldYqfPiGEqKxHy6-90" vertex="1">
          <mxGeometry x="98" y="15.75" width="60" height="30" as="geometry" />
        </mxCell>
        <mxCell id="K9JDCldYqfPiGEqKxHy6-80" style="edgeStyle=orthogonalEdgeStyle;rounded=0;orthogonalLoop=1;jettySize=auto;html=1;entryX=0;entryY=0.5;entryDx=0;entryDy=0;fontSize=28;" parent="K9JDCldYqfPiGEqKxHy6-90" source="K9JDCldYqfPiGEqKxHy6-75" target="K9JDCldYqfPiGEqKxHy6-77" edge="1">
          <mxGeometry relative="1" as="geometry" />
        </mxCell>
        <mxCell id="K9JDCldYqfPiGEqKxHy6-79" value="&lt;b&gt;&lt;font style=&quot;font-size: 27px&quot;&gt;X&#39;&lt;/font&gt;&lt;/b&gt;" style="ellipse;whiteSpace=wrap;html=1;aspect=fixed;shadow=0;sketch=0;fontFamily=Helvetica;fontSize=18;fontColor=default;strokeColor=#6c8ebf;fillColor=#E0E0E0;" parent="K9JDCldYqfPiGEqKxHy6-90" vertex="1">
          <mxGeometry x="202" y="6.75" width="48.5" height="48.5" as="geometry" />
        </mxCell>
        <mxCell id="K9JDCldYqfPiGEqKxHy6-81" style="edgeStyle=orthogonalEdgeStyle;rounded=0;orthogonalLoop=1;jettySize=auto;html=1;entryX=0;entryY=0.5;entryDx=0;entryDy=0;fontSize=28;" parent="K9JDCldYqfPiGEqKxHy6-90" source="K9JDCldYqfPiGEqKxHy6-77" target="K9JDCldYqfPiGEqKxHy6-79" edge="1">
          <mxGeometry relative="1" as="geometry" />
        </mxCell>
        <mxCell id="K9JDCldYqfPiGEqKxHy6-82" value="&lt;b&gt;&lt;font style=&quot;font-size: 27px&quot;&gt;X&lt;/font&gt;&lt;/b&gt;" style="ellipse;whiteSpace=wrap;html=1;aspect=fixed;shadow=0;sketch=0;fontFamily=Helvetica;fontSize=18;fontColor=default;strokeColor=#6c8ebf;fillColor=#E0E0E0;" parent="K9JDCldYqfPiGEqKxHy6-90" vertex="1">
          <mxGeometry x="202" y="124.75" width="48.5" height="48.5" as="geometry" />
        </mxCell>
        <mxCell id="K9JDCldYqfPiGEqKxHy6-88" style="edgeStyle=orthogonalEdgeStyle;rounded=0;orthogonalLoop=1;jettySize=auto;html=1;fontSize=28;" parent="K9JDCldYqfPiGEqKxHy6-90" source="K9JDCldYqfPiGEqKxHy6-84" edge="1">
          <mxGeometry relative="1" as="geometry">
            <mxPoint x="371" y="92.33072507687507" as="targetPoint" />
          </mxGeometry>
        </mxCell>
        <mxCell id="K9JDCldYqfPiGEqKxHy6-84" value="D" style="rounded=0;whiteSpace=wrap;html=1;shadow=0;sketch=0;fontFamily=Helvetica;fontSize=30;strokeColor=#82b366;fillColor=#d5e8d4;" parent="K9JDCldYqfPiGEqKxHy6-90" vertex="1">
          <mxGeometry x="296.004480874317" y="73.75022817416107" width="50.29407103825137" height="37.16099380542805" as="geometry" />
        </mxCell>
        <mxCell id="K9JDCldYqfPiGEqKxHy6-86" style="edgeStyle=orthogonalEdgeStyle;rounded=0;orthogonalLoop=1;jettySize=auto;html=1;entryX=0;entryY=0.5;entryDx=0;entryDy=0;fontSize=28;" parent="K9JDCldYqfPiGEqKxHy6-90" source="K9JDCldYqfPiGEqKxHy6-79" target="K9JDCldYqfPiGEqKxHy6-84" edge="1">
          <mxGeometry relative="1" as="geometry" />
        </mxCell>
        <mxCell id="K9JDCldYqfPiGEqKxHy6-87" style="edgeStyle=orthogonalEdgeStyle;rounded=0;orthogonalLoop=1;jettySize=auto;html=1;entryX=0;entryY=0.5;entryDx=0;entryDy=0;fontSize=28;" parent="K9JDCldYqfPiGEqKxHy6-90" source="K9JDCldYqfPiGEqKxHy6-82" target="K9JDCldYqfPiGEqKxHy6-84" edge="1">
          <mxGeometry relative="1" as="geometry" />
        </mxCell>
        <mxCell id="K9JDCldYqfPiGEqKxHy6-89" value="&lt;font style=&quot;font-size: 22px&quot;&gt;&lt;b&gt;D(X,X&#39;)&lt;/b&gt;&lt;/font&gt;" style="text;html=1;strokeColor=none;fillColor=none;align=center;verticalAlign=middle;whiteSpace=wrap;rounded=0;fontSize=28;" parent="K9JDCldYqfPiGEqKxHy6-90" vertex="1">
          <mxGeometry x="384" y="77.75" width="60" height="30" as="geometry" />
        </mxCell>
        <mxCell id="K9JDCldYqfPiGEqKxHy6-91" value="" style="group" parent="1" vertex="1" connectable="0">
          <mxGeometry x="636" y="166" width="444" height="173.25478908188586" as="geometry" />
        </mxCell>
        <mxCell id="K9JDCldYqfPiGEqKxHy6-130" style="edgeStyle=orthogonalEdgeStyle;rounded=0;orthogonalLoop=1;jettySize=auto;html=1;entryX=0;entryY=0.5;entryDx=0;entryDy=0;fontSize=27;" parent="K9JDCldYqfPiGEqKxHy6-91" source="K9JDCldYqfPiGEqKxHy6-92" target="K9JDCldYqfPiGEqKxHy6-100" edge="1">
          <mxGeometry relative="1" as="geometry">
            <Array as="points">
              <mxPoint x="27" y="92" />
            </Array>
          </mxGeometry>
        </mxCell>
        <mxCell id="K9JDCldYqfPiGEqKxHy6-129" style="edgeStyle=orthogonalEdgeStyle;rounded=0;orthogonalLoop=1;jettySize=auto;html=1;entryX=1;entryY=0.75;entryDx=0;entryDy=0;fontSize=27;endArrow=baseDash;endFill=0;" parent="K9JDCldYqfPiGEqKxHy6-91" source="K9JDCldYqfPiGEqKxHy6-121" target="K9JDCldYqfPiGEqKxHy6-100" edge="1">
          <mxGeometry relative="1" as="geometry">
            <Array as="points">
              <mxPoint x="27" y="97" />
              <mxPoint x="296" y="97" />
              <mxPoint x="296" y="102" />
            </Array>
          </mxGeometry>
        </mxCell>
        <mxCell id="K9JDCldYqfPiGEqKxHy6-92" value="&lt;b&gt;&lt;font style=&quot;font-size: 27px&quot;&gt;Z&lt;/font&gt;&lt;/b&gt;" style="ellipse;whiteSpace=wrap;html=1;aspect=fixed;shadow=0;sketch=0;fontFamily=Helvetica;fontSize=18;fontColor=default;strokeColor=#6c8ebf;fillColor=#E0E0E0;" parent="K9JDCldYqfPiGEqKxHy6-91" vertex="1">
          <mxGeometry y="5.75" width="48.5" height="48.5" as="geometry" />
        </mxCell>
        <mxCell id="K9JDCldYqfPiGEqKxHy6-93" value="" style="verticalLabelPosition=bottom;verticalAlign=top;html=1;shape=offPageConnector;rounded=0;size=0.5;shadow=0;sketch=0;fontFamily=Helvetica;fontSize=18;strokeColor=#6c8ebf;fillColor=#dae8fc;rotation=-270;" parent="K9JDCldYqfPiGEqKxHy6-91" vertex="1">
          <mxGeometry x="94" width="58.25" height="58.25" as="geometry" />
        </mxCell>
        <mxCell id="K9JDCldYqfPiGEqKxHy6-94" value="&lt;b&gt;&lt;font style=&quot;font-size: 28px&quot;&gt;G&lt;/font&gt;&lt;/b&gt;" style="text;html=1;strokeColor=none;fillColor=none;align=center;verticalAlign=middle;whiteSpace=wrap;rounded=0;fontSize=26;" parent="K9JDCldYqfPiGEqKxHy6-91" vertex="1">
          <mxGeometry x="98" y="15.75" width="60" height="30" as="geometry" />
        </mxCell>
        <mxCell id="K9JDCldYqfPiGEqKxHy6-95" style="edgeStyle=orthogonalEdgeStyle;rounded=0;orthogonalLoop=1;jettySize=auto;html=1;entryX=0;entryY=0.5;entryDx=0;entryDy=0;fontSize=28;" parent="K9JDCldYqfPiGEqKxHy6-91" source="K9JDCldYqfPiGEqKxHy6-92" target="K9JDCldYqfPiGEqKxHy6-94" edge="1">
          <mxGeometry relative="1" as="geometry" />
        </mxCell>
        <mxCell id="K9JDCldYqfPiGEqKxHy6-96" value="&lt;b&gt;&lt;font style=&quot;font-size: 27px&quot;&gt;X&#39;&lt;/font&gt;&lt;/b&gt;" style="ellipse;whiteSpace=wrap;html=1;aspect=fixed;shadow=0;sketch=0;fontFamily=Helvetica;fontSize=18;fontColor=default;strokeColor=#6c8ebf;fillColor=#E0E0E0;" parent="K9JDCldYqfPiGEqKxHy6-91" vertex="1">
          <mxGeometry x="202" y="6.75" width="48.5" height="48.5" as="geometry" />
        </mxCell>
        <mxCell id="K9JDCldYqfPiGEqKxHy6-97" style="edgeStyle=orthogonalEdgeStyle;rounded=0;orthogonalLoop=1;jettySize=auto;html=1;entryX=0;entryY=0.5;entryDx=0;entryDy=0;fontSize=28;" parent="K9JDCldYqfPiGEqKxHy6-91" source="K9JDCldYqfPiGEqKxHy6-94" target="K9JDCldYqfPiGEqKxHy6-96" edge="1">
          <mxGeometry relative="1" as="geometry" />
        </mxCell>
        <mxCell id="K9JDCldYqfPiGEqKxHy6-123" style="edgeStyle=orthogonalEdgeStyle;rounded=0;orthogonalLoop=1;jettySize=auto;html=1;entryX=0.5;entryY=0;entryDx=0;entryDy=0;fontSize=27;" parent="K9JDCldYqfPiGEqKxHy6-91" source="K9JDCldYqfPiGEqKxHy6-98" target="K9JDCldYqfPiGEqKxHy6-104" edge="1">
          <mxGeometry relative="1" as="geometry" />
        </mxCell>
        <mxCell id="K9JDCldYqfPiGEqKxHy6-98" value="&lt;b&gt;&lt;font style=&quot;font-size: 27px&quot;&gt;X&lt;/font&gt;&lt;/b&gt;" style="ellipse;whiteSpace=wrap;html=1;aspect=fixed;shadow=0;sketch=0;fontFamily=Helvetica;fontSize=18;fontColor=default;strokeColor=#6c8ebf;fillColor=#E0E0E0;" parent="K9JDCldYqfPiGEqKxHy6-91" vertex="1">
          <mxGeometry x="202" y="120.75" width="48.5" height="48.5" as="geometry" />
        </mxCell>
        <mxCell id="K9JDCldYqfPiGEqKxHy6-99" style="edgeStyle=orthogonalEdgeStyle;rounded=0;orthogonalLoop=1;jettySize=auto;html=1;fontSize=28;" parent="K9JDCldYqfPiGEqKxHy6-91" source="K9JDCldYqfPiGEqKxHy6-100" edge="1">
          <mxGeometry relative="1" as="geometry">
            <mxPoint x="371" y="92.33072507687507" as="targetPoint" />
          </mxGeometry>
        </mxCell>
        <mxCell id="K9JDCldYqfPiGEqKxHy6-100" value="D" style="rounded=0;whiteSpace=wrap;html=1;shadow=0;sketch=0;fontFamily=Helvetica;fontSize=30;strokeColor=#82b366;fillColor=#d5e8d4;" parent="K9JDCldYqfPiGEqKxHy6-91" vertex="1">
          <mxGeometry x="296.004480874317" y="73.75022817416107" width="50.29407103825137" height="37.16099380542805" as="geometry" />
        </mxCell>
        <mxCell id="K9JDCldYqfPiGEqKxHy6-101" style="edgeStyle=orthogonalEdgeStyle;rounded=0;orthogonalLoop=1;jettySize=auto;html=1;entryX=0;entryY=0.5;entryDx=0;entryDy=0;fontSize=28;" parent="K9JDCldYqfPiGEqKxHy6-91" source="K9JDCldYqfPiGEqKxHy6-96" target="K9JDCldYqfPiGEqKxHy6-100" edge="1">
          <mxGeometry relative="1" as="geometry" />
        </mxCell>
        <mxCell id="K9JDCldYqfPiGEqKxHy6-102" style="edgeStyle=orthogonalEdgeStyle;rounded=0;orthogonalLoop=1;jettySize=auto;html=1;fontSize=28;" parent="K9JDCldYqfPiGEqKxHy6-91" source="K9JDCldYqfPiGEqKxHy6-98" edge="1">
          <mxGeometry relative="1" as="geometry">
            <mxPoint x="295" y="98" as="targetPoint" />
            <Array as="points">
              <mxPoint x="274" y="145" />
              <mxPoint x="274" y="98" />
            </Array>
          </mxGeometry>
        </mxCell>
        <mxCell id="K9JDCldYqfPiGEqKxHy6-103" value="&lt;font style=&quot;font-size: 22px&quot;&gt;&lt;b&gt;D(X,X&#39;)&lt;/b&gt;&lt;/font&gt;" style="text;html=1;strokeColor=none;fillColor=none;align=center;verticalAlign=middle;whiteSpace=wrap;rounded=0;fontSize=28;" parent="K9JDCldYqfPiGEqKxHy6-91" vertex="1">
          <mxGeometry x="384" y="77.75" width="60" height="30" as="geometry" />
        </mxCell>
        <mxCell id="K9JDCldYqfPiGEqKxHy6-104" value="" style="verticalLabelPosition=bottom;verticalAlign=top;html=1;shape=offPageConnector;rounded=0;size=0.5;shadow=0;sketch=0;fontFamily=Helvetica;fontSize=18;strokeColor=#b85450;fillColor=#f8cecc;rotation=90;" parent="K9JDCldYqfPiGEqKxHy6-91" vertex="1">
          <mxGeometry x="95" y="116.25" width="57" height="57" as="geometry" />
        </mxCell>
        <mxCell id="K9JDCldYqfPiGEqKxHy6-124" style="edgeStyle=orthogonalEdgeStyle;rounded=0;orthogonalLoop=1;jettySize=auto;html=1;entryX=1;entryY=0.5;entryDx=0;entryDy=0;fontSize=27;" parent="K9JDCldYqfPiGEqKxHy6-91" source="K9JDCldYqfPiGEqKxHy6-105" target="K9JDCldYqfPiGEqKxHy6-121" edge="1">
          <mxGeometry relative="1" as="geometry" />
        </mxCell>
        <mxCell id="K9JDCldYqfPiGEqKxHy6-105" value="&lt;b&gt;&lt;font style=&quot;font-size: 27px&quot;&gt;E&lt;/font&gt;&lt;/b&gt;" style="text;html=1;strokeColor=none;fillColor=none;align=center;verticalAlign=middle;whiteSpace=wrap;rounded=0;fontSize=22;" parent="K9JDCldYqfPiGEqKxHy6-91" vertex="1">
          <mxGeometry x="101" y="132" width="60" height="30" as="geometry" />
        </mxCell>
        <mxCell id="K9JDCldYqfPiGEqKxHy6-121" value="&lt;b&gt;&lt;font style=&quot;font-size: 27px&quot;&gt;Z&#39;&lt;/font&gt;&lt;/b&gt;" style="ellipse;whiteSpace=wrap;html=1;aspect=fixed;shadow=0;sketch=0;fontFamily=Helvetica;fontSize=18;fontColor=default;strokeColor=#6c8ebf;fillColor=#E0E0E0;" parent="K9JDCldYqfPiGEqKxHy6-91" vertex="1">
          <mxGeometry x="3" y="122.75" width="48.5" height="48.5" as="geometry" />
        </mxCell>
        <mxCell id="K9JDCldYqfPiGEqKxHy6-149" value="" style="endArrow=none;html=1;rounded=0;fontSize=27;exitX=0;exitY=0.5;exitDx=0;exitDy=0;entryX=1;entryY=0.5;entryDx=0;entryDy=0;" parent="1" source="K9JDCldYqfPiGEqKxHy6-145" target="K9JDCldYqfPiGEqKxHy6-145" edge="1">
          <mxGeometry width="50" height="50" relative="1" as="geometry">
            <mxPoint x="133" y="403" as="sourcePoint" />
            <mxPoint x="1101" y="400" as="targetPoint" />
          </mxGeometry>
        </mxCell>
        <mxCell id="K9JDCldYqfPiGEqKxHy6-151" value="" style="endArrow=none;html=1;rounded=0;fontSize=27;exitX=0.485;exitY=-0.002;exitDx=0;exitDy=0;exitPerimeter=0;" parent="1" source="K9JDCldYqfPiGEqKxHy6-145" edge="1">
          <mxGeometry width="50" height="50" relative="1" as="geometry">
            <mxPoint x="186" y="163" as="sourcePoint" />
            <mxPoint x="569" y="394" as="targetPoint" />
          </mxGeometry>
        </mxCell>
        <mxCell id="K9JDCldYqfPiGEqKxHy6-152" value="AnoGan" style="text;html=1;strokeColor=none;fillColor=none;align=center;verticalAlign=middle;whiteSpace=wrap;rounded=0;fontSize=27;" parent="1" vertex="1">
          <mxGeometry x="86" y="352" width="60" height="30" as="geometry" />
        </mxCell>
        <mxCell id="K9JDCldYqfPiGEqKxHy6-153" value="BiGAN" style="text;html=1;strokeColor=none;fillColor=none;align=center;verticalAlign=middle;whiteSpace=wrap;rounded=0;fontSize=27;" parent="1" vertex="1">
          <mxGeometry x="592" y="358" width="60" height="30" as="geometry" />
        </mxCell>
        <mxCell id="-DCPUuU-maHSj6jhBlP8-17" style="edgeStyle=orthogonalEdgeStyle;rounded=0;orthogonalLoop=1;jettySize=auto;html=1;fontSize=6;" edge="1" parent="1" source="-DCPUuU-maHSj6jhBlP8-3" target="-DCPUuU-maHSj6jhBlP8-4">
          <mxGeometry relative="1" as="geometry" />
        </mxCell>
        <mxCell id="-DCPUuU-maHSj6jhBlP8-3" value="&lt;span style=&quot;font-size: 27px&quot;&gt;&lt;b&gt;O&lt;/b&gt;&lt;/span&gt;" style="ellipse;whiteSpace=wrap;html=1;aspect=fixed;shadow=0;sketch=0;fontFamily=Helvetica;fontSize=18;fontColor=default;strokeColor=#6c8ebf;fillColor=#E0E0E0;" vertex="1" parent="1">
          <mxGeometry x="252" y="562.9984367245657" width="50.12202748310086" height="50.12202748310086" as="geometry" />
        </mxCell>
        <mxCell id="-DCPUuU-maHSj6jhBlP8-12" value="" style="group" vertex="1" connectable="0" parent="1">
          <mxGeometry x="391" y="553" width="115.13" height="70.86" as="geometry" />
        </mxCell>
        <mxCell id="-DCPUuU-maHSj6jhBlP8-4" value="" style="rounded=0;whiteSpace=wrap;html=1;" vertex="1" parent="-DCPUuU-maHSj6jhBlP8-12">
          <mxGeometry width="115.12999999999997" height="70.86" as="geometry" />
        </mxCell>
        <mxCell id="-DCPUuU-maHSj6jhBlP8-6" value="" style="rounded=0;whiteSpace=wrap;html=1;fillColor=#fff2cc;strokeColor=#d6b656;rotation=90;" vertex="1" parent="-DCPUuU-maHSj6jhBlP8-12">
          <mxGeometry x="5.526239999999998" y="31.66859589041097" width="33.15743999999999" height="5.824109589041094" as="geometry" />
        </mxCell>
        <mxCell id="-DCPUuU-maHSj6jhBlP8-8" value="" style="rounded=0;whiteSpace=wrap;html=1;fillColor=#fff2cc;strokeColor=#d6b656;rotation=90;" vertex="1" parent="-DCPUuU-maHSj6jhBlP8-12">
          <mxGeometry x="21.64443999999999" y="31.66859589041097" width="43.979659999999996" height="5.824109589041094" as="geometry" />
        </mxCell>
        <mxCell id="-DCPUuU-maHSj6jhBlP8-5" style="edgeStyle=orthogonalEdgeStyle;rounded=0;orthogonalLoop=1;jettySize=auto;html=1;" edge="1" parent="-DCPUuU-maHSj6jhBlP8-12">
          <mxGeometry relative="1" as="geometry">
            <mxPoint x="25.085723013698594" y="34.586533935122176" as="sourcePoint" />
            <mxPoint x="40.65350698630132" y="34.5865322996484" as="targetPoint" />
          </mxGeometry>
        </mxCell>
        <mxCell id="-DCPUuU-maHSj6jhBlP8-10" value="" style="rounded=0;whiteSpace=wrap;html=1;fillColor=#fff2cc;strokeColor=#d6b656;rotation=90;" vertex="1" parent="-DCPUuU-maHSj6jhBlP8-12">
          <mxGeometry x="32.23639999999998" y="31.91126712328768" width="62.17019999999998" height="5.824109589041094" as="geometry" />
        </mxCell>
        <mxCell id="-DCPUuU-maHSj6jhBlP8-7" style="edgeStyle=orthogonalEdgeStyle;rounded=0;orthogonalLoop=1;jettySize=auto;html=1;entryX=0.5;entryY=1;entryDx=0;entryDy=0;" edge="1" parent="-DCPUuU-maHSj6jhBlP8-12">
          <mxGeometry relative="1" as="geometry">
            <mxPoint x="45.624787590492545" y="34.583077727229266" as="sourcePoint" />
            <mxPoint x="59.806081747255945" y="34.823321917808286" as="targetPoint" />
          </mxGeometry>
        </mxCell>
        <mxCell id="-DCPUuU-maHSj6jhBlP8-11" value="" style="rounded=0;whiteSpace=wrap;html=1;fillColor=#fff2cc;strokeColor=#d6b656;rotation=90;" vertex="1" parent="-DCPUuU-maHSj6jhBlP8-12">
          <mxGeometry x="69.36812759999998" y="31.66859589041097" width="36.72647" height="5.824109589041094" as="geometry" />
        </mxCell>
        <mxCell id="-DCPUuU-maHSj6jhBlP8-9" style="edgeStyle=orthogonalEdgeStyle;rounded=0;orthogonalLoop=1;jettySize=auto;html=1;entryX=0.5;entryY=1;entryDx=0;entryDy=0;" edge="1" parent="-DCPUuU-maHSj6jhBlP8-12" source="-DCPUuU-maHSj6jhBlP8-10" target="-DCPUuU-maHSj6jhBlP8-11">
          <mxGeometry relative="1" as="geometry">
            <Array as="points">
              <mxPoint x="76.02924528301887" y="34.338789575705356" />
              <mxPoint x="76.02924528301887" y="34.338789575705356" />
            </Array>
          </mxGeometry>
        </mxCell>
        <mxCell id="-DCPUuU-maHSj6jhBlP8-15" style="edgeStyle=orthogonalEdgeStyle;rounded=0;orthogonalLoop=1;jettySize=auto;html=1;entryX=0;entryY=0.5;entryDx=0;entryDy=0;" edge="1" parent="1" source="-DCPUuU-maHSj6jhBlP8-10" target="K9JDCldYqfPiGEqKxHy6-32">
          <mxGeometry relative="1" as="geometry">
            <Array as="points">
              <mxPoint x="454" y="634" />
              <mxPoint x="578" y="634" />
              <mxPoint x="578" y="571" />
            </Array>
          </mxGeometry>
        </mxCell>
        <mxCell id="-DCPUuU-maHSj6jhBlP8-16" value="&lt;font style=&quot;font-size: 6px&quot;&gt;&lt;b&gt;Latent&lt;br&gt;features&lt;/b&gt;&lt;/font&gt;" style="edgeLabel;html=1;align=center;verticalAlign=middle;resizable=0;points=[];" vertex="1" connectable="0" parent="-DCPUuU-maHSj6jhBlP8-15">
          <mxGeometry x="-0.4758" y="2" relative="1" as="geometry">
            <mxPoint x="9" y="-15" as="offset" />
          </mxGeometry>
        </mxCell>
      </root>
    </mxGraphModel>
  </diagram>
</mxfile>
